<?xml version="1.0" encoding="UTF-8"?>
<svg width="250" height="150" xmlns="http://www.w3.org/2000/svg" version="1.1">
  <g>
    <path fill="none" stroke-width="2" d="m9.64761,88.058601l116.501659,-48.501312l116.50161,48.501312l-116.50161,48.501305l-116.501659,-48.501305z" id="svg_1" stroke="#000000"/>
    <path fill="#bfbfbf" stroke="#000000" stroke-width="2" d="m86.547333,87.995361l57.600433,1.5326l55.337631,1.390831l-58.017151,18.573669l-54.920914,-21.497101z" id="svg_2" transform="rotate(-1.14569, 143.016, 98.7441)"/>
    <text fill="#000000" stroke="#000000" stroke-width="0" x="124" y="24" id="svg_4" font-size="18" font-family="Sans-serif" text-anchor="middle" xml:space="preserve" font-weight="normal">up (+)</text>
    <path fill="#ffffff" stroke="#000000" d="m80.189133,44.251572l7.002266,-30.914572l7.002258,30.914572l-3.501114,0l0,31.063438l-7.002266,0l0,-31.063438l-3.501144,0z" id="svg_3"/>
    <path fill="#000000" stroke="#000000" stroke-width="2" d="m59.541981,108.358231l-8.35231,-5.841713l5.500679,0l8.352299,5.841713l-8.352299,5.841629l-5.500679,0l8.35231,-5.841629z" id="svg_7" transform="rotate(23.792, 58.115, 108.357)"/>
    <path fill="#000000" stroke="#000000" stroke-width="2" d="m145.104492,89.184402l-8.352325,-5.841721l5.500671,0l8.352325,5.841721l-8.352325,5.841629l-5.500671,0l8.352325,-5.841629z" transform="rotate(1.8956, 143.68, 89.1855)" id="svg_10"/>
    <path fill="#000000" stroke="#000000" stroke-width="2" d="m166.104492,56.184402l-8.352325,-5.841721l5.500671,0l8.352325,5.841721l-8.352325,5.841629l-5.500671,0l8.352325,-5.841629z" transform="rotate(-155.816, 164.68, 56.1856)" id="svg_11"/>
  </g>
</svg>